<mxfile host="app.diagrams.net" agent="Mozilla/5.0 (Windows NT 10.0; Win64; x64) AppleWebKit/537.36 (KHTML, like Gecko) Chrome/139.0.0.0 Safari/537.36 Edg/139.0.0.0" version="28.1.2">
  <diagram name="Página-1" id="BJzU9_9xl7LAiyp9XbbO">
    <mxGraphModel dx="1418" dy="794" grid="1" gridSize="10" guides="1" tooltips="1" connect="1" arrows="1" fold="1" page="1" pageScale="1" pageWidth="827" pageHeight="1169" math="0" shadow="0">
      <root>
        <mxCell id="0" />
        <mxCell id="1" parent="0" />
        <mxCell id="in1imrPIGQjmfALx1_UR-22" style="edgeStyle=orthogonalEdgeStyle;rounded=0;orthogonalLoop=1;jettySize=auto;html=1;exitX=0;exitY=0.25;exitDx=0;exitDy=0;entryX=0.5;entryY=0;entryDx=0;entryDy=0;" edge="1" parent="1" source="in1imrPIGQjmfALx1_UR-1" target="in1imrPIGQjmfALx1_UR-4">
          <mxGeometry relative="1" as="geometry" />
        </mxCell>
        <mxCell id="in1imrPIGQjmfALx1_UR-1" value="Habitante" style="rounded=1;arcSize=10;whiteSpace=wrap;html=1;align=center;" vertex="1" parent="1">
          <mxGeometry x="200" y="440" width="100" height="40" as="geometry" />
        </mxCell>
        <mxCell id="in1imrPIGQjmfALx1_UR-15" style="edgeStyle=orthogonalEdgeStyle;rounded=0;orthogonalLoop=1;jettySize=auto;html=1;exitX=1;exitY=0;exitDx=0;exitDy=0;entryX=0;entryY=1;entryDx=0;entryDy=0;curved=1;" edge="1" parent="1" source="in1imrPIGQjmfALx1_UR-2" target="in1imrPIGQjmfALx1_UR-8">
          <mxGeometry relative="1" as="geometry" />
        </mxCell>
        <mxCell id="in1imrPIGQjmfALx1_UR-19" style="edgeStyle=orthogonalEdgeStyle;rounded=0;orthogonalLoop=1;jettySize=auto;html=1;exitX=1;exitY=1;exitDx=0;exitDy=0;entryX=0.5;entryY=0;entryDx=0;entryDy=0;curved=1;" edge="1" parent="1" source="in1imrPIGQjmfALx1_UR-2" target="in1imrPIGQjmfALx1_UR-18">
          <mxGeometry relative="1" as="geometry" />
        </mxCell>
        <mxCell id="in1imrPIGQjmfALx1_UR-2" value="Vivienda" style="rounded=1;arcSize=10;whiteSpace=wrap;html=1;align=center;" vertex="1" parent="1">
          <mxGeometry x="460" y="440" width="100" height="40" as="geometry" />
        </mxCell>
        <mxCell id="in1imrPIGQjmfALx1_UR-3" value="Tipo Dni" style="ellipse;whiteSpace=wrap;html=1;align=center;fontStyle=4;" vertex="1" parent="1">
          <mxGeometry x="90" y="350" width="100" height="40" as="geometry" />
        </mxCell>
        <mxCell id="in1imrPIGQjmfALx1_UR-4" value="Nro Dni" style="ellipse;whiteSpace=wrap;html=1;align=center;fontStyle=4;" vertex="1" parent="1">
          <mxGeometry x="50" y="470" width="100" height="40" as="geometry" />
        </mxCell>
        <mxCell id="in1imrPIGQjmfALx1_UR-5" value="Nombre completo" style="ellipse;whiteSpace=wrap;html=1;align=center;" vertex="1" parent="1">
          <mxGeometry x="240" y="340" width="100" height="40" as="geometry" />
        </mxCell>
        <mxCell id="in1imrPIGQjmfALx1_UR-6" value="Fecha de nacimiento" style="ellipse;whiteSpace=wrap;html=1;align=center;dashed=1;" vertex="1" parent="1">
          <mxGeometry x="180" y="565" width="100" height="40" as="geometry" />
        </mxCell>
        <mxCell id="in1imrPIGQjmfALx1_UR-7" value="Edad" style="ellipse;whiteSpace=wrap;html=1;align=center;" vertex="1" parent="1">
          <mxGeometry x="50" y="545" width="100" height="40" as="geometry" />
        </mxCell>
        <mxCell id="in1imrPIGQjmfALx1_UR-12" style="edgeStyle=orthogonalEdgeStyle;rounded=0;orthogonalLoop=1;jettySize=auto;html=1;exitX=0.5;exitY=0;exitDx=0;exitDy=0;entryX=0;entryY=0.5;entryDx=0;entryDy=0;curved=1;" edge="1" parent="1" source="in1imrPIGQjmfALx1_UR-8" target="in1imrPIGQjmfALx1_UR-9">
          <mxGeometry relative="1" as="geometry" />
        </mxCell>
        <mxCell id="in1imrPIGQjmfALx1_UR-14" style="edgeStyle=orthogonalEdgeStyle;rounded=0;orthogonalLoop=1;jettySize=auto;html=1;exitX=1;exitY=1;exitDx=0;exitDy=0;entryX=0;entryY=1;entryDx=0;entryDy=0;curved=1;" edge="1" parent="1" source="in1imrPIGQjmfALx1_UR-8" target="in1imrPIGQjmfALx1_UR-11">
          <mxGeometry relative="1" as="geometry" />
        </mxCell>
        <mxCell id="in1imrPIGQjmfALx1_UR-8" value="&lt;span style=&quot;border-bottom: 1px dotted&quot;&gt;Direccion&lt;/span&gt;" style="ellipse;whiteSpace=wrap;html=1;align=center;" vertex="1" parent="1">
          <mxGeometry x="600" y="350" width="100" height="40" as="geometry" />
        </mxCell>
        <mxCell id="in1imrPIGQjmfALx1_UR-9" value="&lt;span style=&quot;border-bottom: 1px dotted&quot;&gt;Cd postal&lt;/span&gt;" style="ellipse;whiteSpace=wrap;html=1;align=center;" vertex="1" parent="1">
          <mxGeometry x="640" y="240" width="100" height="40" as="geometry" />
        </mxCell>
        <mxCell id="in1imrPIGQjmfALx1_UR-10" value="&lt;span style=&quot;border-bottom: 1px dotted&quot;&gt;Localidad&lt;/span&gt;" style="ellipse;whiteSpace=wrap;html=1;align=center;" vertex="1" parent="1">
          <mxGeometry x="700" y="280" width="100" height="40" as="geometry" />
        </mxCell>
        <mxCell id="in1imrPIGQjmfALx1_UR-11" value="&lt;span style=&quot;border-bottom: 1px dotted&quot;&gt;Calle - nro&lt;/span&gt;" style="ellipse;whiteSpace=wrap;html=1;align=center;" vertex="1" parent="1">
          <mxGeometry x="740" y="330" width="100" height="40" as="geometry" />
        </mxCell>
        <mxCell id="in1imrPIGQjmfALx1_UR-13" style="edgeStyle=orthogonalEdgeStyle;rounded=0;orthogonalLoop=1;jettySize=auto;html=1;exitX=1;exitY=0;exitDx=0;exitDy=0;entryX=0;entryY=0.75;entryDx=0;entryDy=0;entryPerimeter=0;curved=1;" edge="1" parent="1" source="in1imrPIGQjmfALx1_UR-8" target="in1imrPIGQjmfALx1_UR-10">
          <mxGeometry relative="1" as="geometry" />
        </mxCell>
        <mxCell id="in1imrPIGQjmfALx1_UR-18" value="Tamaño" style="ellipse;whiteSpace=wrap;html=1;align=center;" vertex="1" parent="1">
          <mxGeometry x="640" y="490" width="100" height="40" as="geometry" />
        </mxCell>
        <mxCell id="in1imrPIGQjmfALx1_UR-20" style="edgeStyle=orthogonalEdgeStyle;rounded=0;orthogonalLoop=1;jettySize=auto;html=1;exitX=0.5;exitY=0;exitDx=0;exitDy=0;entryX=0.38;entryY=0.975;entryDx=0;entryDy=0;entryPerimeter=0;" edge="1" parent="1" source="in1imrPIGQjmfALx1_UR-1" target="in1imrPIGQjmfALx1_UR-5">
          <mxGeometry relative="1" as="geometry" />
        </mxCell>
        <mxCell id="in1imrPIGQjmfALx1_UR-21" style="edgeStyle=orthogonalEdgeStyle;rounded=0;orthogonalLoop=1;jettySize=auto;html=1;exitX=0.25;exitY=0;exitDx=0;exitDy=0;entryX=0.75;entryY=1;entryDx=0;entryDy=0;entryPerimeter=0;" edge="1" parent="1" source="in1imrPIGQjmfALx1_UR-1" target="in1imrPIGQjmfALx1_UR-3">
          <mxGeometry relative="1" as="geometry" />
        </mxCell>
        <mxCell id="in1imrPIGQjmfALx1_UR-23" style="edgeStyle=orthogonalEdgeStyle;rounded=0;orthogonalLoop=1;jettySize=auto;html=1;exitX=0;exitY=0.75;exitDx=0;exitDy=0;entryX=1.01;entryY=0.325;entryDx=0;entryDy=0;entryPerimeter=0;" edge="1" parent="1" source="in1imrPIGQjmfALx1_UR-1" target="in1imrPIGQjmfALx1_UR-7">
          <mxGeometry relative="1" as="geometry" />
        </mxCell>
        <mxCell id="in1imrPIGQjmfALx1_UR-24" style="edgeStyle=orthogonalEdgeStyle;rounded=0;orthogonalLoop=1;jettySize=auto;html=1;exitX=0.25;exitY=1;exitDx=0;exitDy=0;entryX=0.41;entryY=0;entryDx=0;entryDy=0;entryPerimeter=0;" edge="1" parent="1" source="in1imrPIGQjmfALx1_UR-1" target="in1imrPIGQjmfALx1_UR-6">
          <mxGeometry relative="1" as="geometry" />
        </mxCell>
        <mxCell id="in1imrPIGQjmfALx1_UR-27" value="" style="endArrow=none;html=1;rounded=0;entryX=0;entryY=0.5;entryDx=0;entryDy=0;" edge="1" parent="1" target="in1imrPIGQjmfALx1_UR-26">
          <mxGeometry width="50" height="50" relative="1" as="geometry">
            <mxPoint x="380" y="460" as="sourcePoint" />
            <mxPoint x="460" y="460" as="targetPoint" />
          </mxGeometry>
        </mxCell>
        <mxCell id="in1imrPIGQjmfALx1_UR-26" value="Alquila" style="shape=rhombus;perimeter=rhombusPerimeter;whiteSpace=wrap;html=1;align=center;" vertex="1" parent="1">
          <mxGeometry x="354" y="445" width="60" height="30" as="geometry" />
        </mxCell>
        <mxCell id="in1imrPIGQjmfALx1_UR-36" value="" style="endArrow=none;html=1;rounded=0;" edge="1" parent="1">
          <mxGeometry relative="1" as="geometry">
            <mxPoint x="60" y="160" as="sourcePoint" />
            <mxPoint x="220" y="160" as="targetPoint" />
          </mxGeometry>
        </mxCell>
        <mxCell id="in1imrPIGQjmfALx1_UR-37" value="N" style="resizable=0;html=1;whiteSpace=wrap;align=right;verticalAlign=bottom;" connectable="0" vertex="1" parent="in1imrPIGQjmfALx1_UR-36">
          <mxGeometry x="1" relative="1" as="geometry" />
        </mxCell>
        <mxCell id="in1imrPIGQjmfALx1_UR-38" value="" style="endArrow=none;html=1;rounded=0;" edge="1" parent="1">
          <mxGeometry relative="1" as="geometry">
            <mxPoint x="414" y="459.5" as="sourcePoint" />
            <mxPoint x="460" y="460" as="targetPoint" />
          </mxGeometry>
        </mxCell>
        <mxCell id="in1imrPIGQjmfALx1_UR-39" value="1" style="resizable=0;html=1;whiteSpace=wrap;align=right;verticalAlign=bottom;" connectable="0" vertex="1" parent="in1imrPIGQjmfALx1_UR-38">
          <mxGeometry x="1" relative="1" as="geometry" />
        </mxCell>
        <mxCell id="in1imrPIGQjmfALx1_UR-41" value="" style="endArrow=none;html=1;rounded=0;entryX=1;entryY=0.5;entryDx=0;entryDy=0;exitX=0;exitY=0.5;exitDx=0;exitDy=0;" edge="1" parent="1" source="in1imrPIGQjmfALx1_UR-26" target="in1imrPIGQjmfALx1_UR-1">
          <mxGeometry relative="1" as="geometry">
            <mxPoint x="360" y="530" as="sourcePoint" />
            <mxPoint x="400" y="550" as="targetPoint" />
          </mxGeometry>
        </mxCell>
        <mxCell id="in1imrPIGQjmfALx1_UR-42" value="1" style="resizable=0;html=1;whiteSpace=wrap;align=right;verticalAlign=bottom;" connectable="0" vertex="1" parent="in1imrPIGQjmfALx1_UR-41">
          <mxGeometry x="1" relative="1" as="geometry" />
        </mxCell>
      </root>
    </mxGraphModel>
  </diagram>
</mxfile>
